<?xml version="1.0" encoding="utf-8"?><svg width="24" height="24" fill="none" xmlns="http://www.w3.org/2000/svg" viewBox="0 0 24 24"><path d="M12 2a9.999 9.999 0 00-7.07 17.071A9.999 9.999 0 1019.07 4.93 9.999 9.999 0 0012 2z" fill="#0284C7"/><path d="M5.825 11.305a535.386 535.386 0 016.443-2.791c3.07-1.283 3.707-1.506 4.124-1.514.091-.001.295.021.428.13.11.09.141.214.157.3.014.087.033.284.017.438-.166 1.757-.886 6.02-1.252 7.988-.153.833-.459 1.112-.754 1.139-.642.06-1.13-.426-1.75-.836-.973-.641-1.522-1.04-2.466-1.665-1.092-.723-.384-1.12.238-1.77.162-.17 2.99-2.756 3.044-2.99.007-.03.014-.14-.052-.197-.064-.058-.159-.038-.228-.022-.098.022-1.65 1.055-4.662 3.097-.44.305-.839.453-1.198.446-.394-.009-1.153-.225-1.718-.41-.69-.225-1.241-.345-1.193-.73.024-.2.299-.404.822-.613z" fill="#fff"/></svg>