<?xml version="1.0" encoding="utf-8"?><svg width="24" height="24" fill="none" xmlns="http://www.w3.org/2000/svg" viewBox="0 0 24 24"><path d="M2.083 11.91c0 1.746.458 3.452 1.33 4.955L2 22l5.28-1.378a9.99 9.99 0 004.758 1.206h.004c5.488 0 9.956-4.446 9.958-9.91a9.827 9.827 0 00-2.914-7.012A9.918 9.918 0 0012.042 2c-5.49 0-9.956 4.446-9.959 9.91" fill="#16A34A"/><path d="M9.542 7.465c-.184-.442-.378-.451-.553-.459C8.845 7 8.68 7 8.517 7c-.164 0-.43.067-.656.332C7.636 7.597 7 8.239 7 9.544c0 1.306.882 2.567 1.005 2.744.123.177 1.702 2.941 4.202 4.004 2.079.884 2.502.708 2.953.664.451-.044 1.456-.642 1.66-1.261.206-.62.206-1.15.144-1.261-.061-.11-.225-.177-.471-.31-.247-.133-1.456-.774-1.682-.863-.225-.088-.39-.132-.553.133-.164.265-.636.863-.78 1.04-.143.177-.286.2-.532.066-.246-.133-1.039-.412-1.979-1.316-.731-.703-1.225-1.572-1.369-1.837-.143-.266-.015-.41.108-.541.11-.12.246-.31.37-.465.122-.155.163-.266.245-.443.082-.177.041-.332-.02-.464-.062-.133-.54-1.445-.759-1.97" fill="#fff"/></svg>