<?xml version="1.0" encoding="utf-8"?><svg width="119" height="48" fill="none" xmlns="http://www.w3.org/2000/svg" viewBox="0 0 119 48"><path d="M33 3L15 0v48l18-3V3z" fill="#222427"/><path fill="#fff" d="M21 21h-3v3h3z"/><path fill="#8BBF1F" d="M15 2.999H0v42h15z"/><path d="M46.372 4h3.111v1.621c1.978 0 3.333.338 4.066 1.013.733.662 1.1 1.966 1.1 3.911v1.966c0 .743-.07 1.364-.208 1.864a3.402 3.402 0 01-.747 1.337c-.36.392-.885.683-1.576.872-.692.189-1.57.283-2.635.283v1.56h-3.11v-1.56c-1.066 0-1.944-.094-2.635-.283-.691-.19-1.217-.48-1.577-.872a3.404 3.404 0 01-.746-1.337c-.138-.5-.208-1.121-.208-1.864v-1.966c0-1.959.367-3.27 1.1-3.931.733-.662 2.088-.993 4.065-.993V4zm3.111 3.688V14.8h.436c.484 0 .816-.182.996-.547.193-.364.29-.986.29-1.864V9.998c0-.878-.097-1.48-.29-1.803-.18-.338-.512-.507-.996-.507h-.436zm-3.11 7.112V7.688h-.436c-.484 0-.823.169-1.017.507-.18.324-.27.925-.27 1.803v2.391c0 .878.09 1.5.27 1.864.194.365.533.547 1.017.547h.435zM60.215 12.693h1.244l-.601-6.423h-.042l-.601 6.423zM58.887 4h4.73l1.908 14.428h-3.423l-.394-3.546h-1.866l-.56 3.546h-2.904L58.888 4zM70.708 11.74v4.62h.539c.567 0 .92-.148 1.058-.445.152-.297.228-.905.228-1.824 0-.932-.076-1.553-.228-1.864-.139-.324-.491-.486-1.058-.486h-.54zM67.264 4h7.696v2.067h-4.252v3.607h1.576c.567 0 1.05.06 1.452.182.4.108.781.31 1.14.608.36.297.63.75.81 1.358.193.608.29 1.364.29 2.27 0 1.634-.325 2.768-.975 3.403-.636.622-1.528.933-2.676.933h-5.06V4zM81.366 6.067v4.721h.54c.566 0 .919-.155 1.057-.466.152-.324.228-.952.228-1.884 0-.932-.076-1.56-.228-1.885-.138-.324-.49-.486-1.058-.486h-.539zm0 6.788v5.573h-3.443V4h4.21c1.494 0 2.614.223 3.36.669.761.445 1.142 1.256 1.142 2.431v2.635c0 1.013-.395 1.79-1.183 2.33-.774.527-1.714.79-2.82.79h-1.266zM88.582 4h3.11v8.227h.022L94.078 4h3.402v14.428h-3.112V10.12h-.02l-2.406 8.308h-3.36V4zM102.866 4v6.545h.041L105.085 4h3.277l-2.302 6.363 2.323 8.065h-3.402l-2.074-7.316h-.041v7.316h-3.444V4h3.444zM113.69 12.693h1.245l-.602-6.423h-.041l-.602 6.423zM112.363 4h4.729L119 18.428h-3.422l-.395-3.546h-1.866l-.56 3.546h-2.904L112.363 4zM42.41 26.796h7.882v12.24h.706V44h-3.215v-2.776h-3.568V44H41v-4.965h.705a14.14 14.14 0 00.56-2.735c.097-.946.145-2.209.145-3.79v-5.714zm4.44 2.189h-1.536v3.708c0 2.81-.255 4.924-.767 6.343h2.302V28.984zM56.18 34.72v4.437c.802 0 1.307-.128 1.514-.385.208-.27.311-.932.311-1.986 0-.513-.02-.905-.062-1.175-.041-.284-.152-.493-.332-.628a.926.926 0 00-.518-.223 7.026 7.026 0 00-.913-.04zm-3.443 6.504V26.796h3.485c.525 0 .933.007 1.223.02.29 0 .65.028 1.079.082.429.04.76.108.996.202.235.081.49.21.767.385.29.162.505.365.643.608.152.243.277.554.373.932.097.365.146.79.146 1.277 0 2-.816 3.073-2.448 3.222v.142c.526 0 .961.088 1.307.263.346.176.594.44.746.79.153.338.256.69.312 1.054.055.351.083.797.083 1.337 0 .568-.042 1.06-.125 1.48-.069.418-.159.776-.27 1.074a1.73 1.73 0 01-.539.75 3.4 3.4 0 01-.705.445c-.221.108-.546.19-.975.243-.429.054-.816.088-1.161.102-.346.013-.83.02-1.452.02h-3.485zm3.443-12.36v3.789c.788 0 1.286-.115 1.494-.345.22-.243.331-.756.331-1.54 0-.797-.11-1.31-.331-1.54-.222-.243-.72-.365-1.494-.365zM63.396 26.796h7.135v2.189h-3.692v3.16h3.567v2.19H66.84v4.7h3.692v2.189h-7.135V26.796zM75.593 28.863v4.722h.54c.567 0 .92-.156 1.057-.467.153-.324.228-.952.228-1.884 0-.932-.076-1.56-.228-1.885-.138-.324-.49-.486-1.058-.486h-.539zm0 6.788v5.573H72.15V26.796h4.21c1.494 0 2.614.223 3.36.669.761.446 1.142 1.256 1.142 2.432v2.634c0 1.013-.394 1.79-1.183 2.33-.774.527-1.714.79-2.82.79h-1.266zM82.809 26.796h7.135v2.189h-3.692v3.16h3.567v2.19h-3.567v4.7h3.692v2.189h-7.135V26.796zM91.563 26.796h3.111v8.227h.021l2.365-8.227h3.401v14.428h-3.11v-8.308h-.022l-2.406 8.308h-3.36V26.796zm1.68-3.566h1.079c.124.743.74 1.114 1.846 1.114.926 0 1.466-.371 1.618-1.114h1.1c0 .892-.27 1.567-.81 2.026-.54.446-1.244.669-2.115.669-.789 0-1.439-.243-1.95-.73-.512-.486-.768-1.141-.768-1.965z" fill="#222427"/></svg>