<?xml version="1.0" encoding="utf-8"?><svg viewBox="0 0 119 48" xmlns="http://www.w3.org/2000/svg" xmlns:xlink="http://www.w3.org/1999/xlink"><style>:root>svg{display:none}:root>svg:target{display:block}</style><svg fill="none" viewBox="0 0 24 24" id="icon-cart" xmlns="http://www.w3.org/2000/svg"><g clip-path="url(#aclip0_1917_903)" stroke="#222427" stroke-width="2" stroke-linecap="round" stroke-linejoin="round"><path d="M1 1h4v14.5a.5.5 0 00.5.5h13.68a1 1 0 00.98-.804l1.72-8.598A.5.5 0 0021.39 6H5M6 22a1 1 0 100-2 1 1 0 000 2zM17 22a1 1 0 100-2 1 1 0 000 2z"/></g><defs><clipPath id="aclip0_1917_903"><path fill="#fff" d="M0 0h24v24H0z"/></clipPath></defs></svg><svg fill="none" viewBox="0 0 24 24" id="icon-catalog" xmlns="http://www.w3.org/2000/svg"><mask id="ba" fill="#fff"><rect x="3" y="3" width="8" height="8" rx="1"/></mask><rect x="3" y="3" width="8" height="8" rx="1" stroke="#8BBF1F" stroke-width="4" mask="url(#ba)"/><mask id="bb" fill="#fff"><rect x="3" y="13" width="8" height="8" rx="1"/></mask><rect x="3" y="13" width="8" height="8" rx="1" stroke="#8BBF1F" stroke-width="4" mask="url(#bb)"/><g><mask id="bc" fill="#fff"><rect x="13" y="3" width="8" height="8" rx="1"/></mask><rect x="13" y="3" width="8" height="8" rx="1" stroke="#8BBF1F" stroke-width="4" mask="url(#bc)"/></g><g><mask id="bd" fill="#fff"><rect x="13" y="13" width="8" height="8" rx="1"/></mask><rect x="13" y="13" width="8" height="8" rx="1" stroke="#8BBF1F" stroke-width="4" mask="url(#bd)"/></g></svg><svg fill="none" viewBox="0 0 24 24" id="icon-closer" xmlns="http://www.w3.org/2000/svg"><g stroke="#222427" stroke-width="2" stroke-linecap="round"><path d="M7 7l10 10M17 7L7 17"/></g></svg><svg fill="none" viewBox="0 0 24 24" id="icon-compare" xmlns="http://www.w3.org/2000/svg"><mask id="da" fill="#fff"><rect x="3" y="9" width="7" height="12" rx="1"/></mask><rect x="3" y="9" width="7" height="12" rx="1" stroke="#222427" stroke-width="4" mask="url(#da)"/><g><mask id="db" fill="#fff"><rect x="14" y="2" width="7" height="19" rx="1"/></mask><rect x="14" y="2" width="7" height="19" rx="1" stroke="#222427" stroke-width="4" mask="url(#db)"/></g></svg><svg fill="none" viewBox="0 0 24 24" id="icon-favorites" xmlns="http://www.w3.org/2000/svg"><path d="M16.5 3C19.538 3 22 5.5 22 9c0 5.873-5.279 9.634-8.455 11.579a2.966 2.966 0 01-3.09 0C7.28 18.634 2 14.873 2 9c0-3.5 2.5-6 5.5-6C9.36 3 11 4 12 5c1-1 2.64-2 4.5-2zm-3.566 15.604a26.953 26.953 0 002.42-1.701C18.335 14.533 20 11.943 20 9c0-2.36-1.537-4-3.5-4-1.076 0-2.24.57-3.086 1.414L12 7.828l-1.414-1.414C9.74 5.57 8.576 5 7.5 5 5.56 5 4 6.656 4 9c0 2.944 1.666 5.533 4.645 7.903.745.592 1.54 1.145 2.421 1.7.14.089.28.176.424.264a.976.976 0 001.02 0c.144-.088.284-.175.424-.263z" fill="#222427"/></svg><svg fill="none" viewBox="0 0 24 24" id="icon-geo" xmlns="http://www.w3.org/2000/svg"><path d="M20 10.182C20 16.546 12 22 12 22s-8-5.454-8-11.818c0-2.17.843-4.251 2.343-5.786A7.91 7.91 0 0112 2c2.122 0 4.157.862 5.657 2.396A8.277 8.277 0 0120 10.182z" stroke="#222427" stroke-width="2" stroke-linecap="round" stroke-linejoin="round"/><path d="M12 13a3 3 0 100-6 3 3 0 000 6z" stroke="#222427" stroke-width="2" stroke-linecap="round" stroke-linejoin="round"/></svg><svg fill="none" viewBox="0 0 13 10" id="icon-mark" xmlns="http://www.w3.org/2000/svg"><path d="M1 4l4 4 7-7" stroke="#fff" stroke-width="2" stroke-linecap="round"/></svg><svg fill="none" viewBox="0 0 16 16" id="icon-minus" xmlns="http://www.w3.org/2000/svg"><path d="M12 8H4" stroke="#5A5C5F" stroke-width="2" stroke-linecap="round" stroke-linejoin="round"/></svg><svg fill="none" viewBox="0 0 24 24" id="icon-mobile-cart" xmlns="http://www.w3.org/2000/svg"><g clip-path="url(#iclip0_2001_1814)" stroke="#5A5C5F" stroke-width="2" stroke-linecap="round" stroke-linejoin="round"><path d="M1 1h4v14.5a.5.5 0 00.5.5h13.68a1 1 0 00.98-.804l1.72-8.598A.5.5 0 0021.39 6H5M6 22a1 1 0 100-2 1 1 0 000 2zM17 22a1 1 0 100-2 1 1 0 000 2z"/></g><defs><clipPath id="iclip0_2001_1814"><path fill="#fff" d="M0 0h24v24H0z"/></clipPath></defs></svg><svg fill="none" viewBox="0 0 24 24" id="icon-mobile-catalog" xmlns="http://www.w3.org/2000/svg"><mask id="ja" fill="#fff"><rect x="3" y="3" width="8" height="8" rx="1"/></mask><rect x="3" y="3" width="8" height="8" rx="1" stroke="#5A5C5F" stroke-width="4" mask="url(#ja)"/><mask id="jb" fill="#fff"><rect x="3" y="13" width="8" height="8" rx="1"/></mask><rect x="3" y="13" width="8" height="8" rx="1" stroke="#5A5C5F" stroke-width="4" mask="url(#jb)"/><g><mask id="jc" fill="#fff"><rect x="13" y="3" width="8" height="8" rx="1"/></mask><rect x="13" y="3" width="8" height="8" rx="1" stroke="#5A5C5F" stroke-width="4" mask="url(#jc)"/></g><g><mask id="jd" fill="#fff"><rect x="13" y="13" width="8" height="8" rx="1"/></mask><rect x="13" y="13" width="8" height="8" rx="1" stroke="#5A5C5F" stroke-width="4" mask="url(#jd)"/></g></svg><svg fill="none" viewBox="0 0 24 24" id="icon-mobile-sale" xmlns="http://www.w3.org/2000/svg"><path fill-rule="evenodd" clip-rule="evenodd" d="M4 1a1 1 0 00-2 0v20.846a1.1 1.1 0 001.547 1.005L12 19.094l8.453 3.757A1.1 1.1 0 0022 21.846V1a1 1 0 10-2 0v19.461l-7.553-3.357a1.1 1.1 0 00-.894 0L4 20.461V1zm12.707 3.293a1 1 0 010 1.414l-8 8a1 1 0 01-1.414-1.414l8-8a1 1 0 011.414 0zM9 8a2 2 0 100-4 2 2 0 000 4zm6 6a2 2 0 100-4 2 2 0 000 4z" fill="#5A5C5F"/></svg><svg fill="none" viewBox="0 0 24 24" id="icon-mobile-search" xmlns="http://www.w3.org/2000/svg"><path d="M18.031 16.617l3.575 3.575a1 1 0 11-1.414 1.414l-3.575-3.575A8.96 8.96 0 0111 20c-4.968 0-9-4.032-9-9s4.032-9 9-9 9 4.032 9 9a8.96 8.96 0 01-1.969 5.617zm-2.006-.742A6.977 6.977 0 0018 11c0-3.868-3.133-7-7-7-3.868 0-7 3.132-7 7 0 3.867 3.132 7 7 7a6.977 6.977 0 004.875-1.975l.15-.15z" fill="#5A5C5F"/></svg><svg fill="none" viewBox="0 0 16 16" id="icon-plus" xmlns="http://www.w3.org/2000/svg"><g stroke="#5A5C5F" stroke-width="2" stroke-linecap="round" stroke-linejoin="round"><path d="M12 8H4M8 4v8"/></g></svg><svg fill="none" viewBox="0 0 24 24" id="icon-search" xmlns="http://www.w3.org/2000/svg"><path d="M18.031 16.617l3.575 3.575a1 1 0 11-1.414 1.414l-3.575-3.575A8.96 8.96 0 0111 20c-4.968 0-9-4.032-9-9s4.032-9 9-9 9 4.032 9 9a8.96 8.96 0 01-1.969 5.617zm-2.006-.742A6.977 6.977 0 0018 11c0-3.868-3.133-7-7-7-3.868 0-7 3.132-7 7 0 3.867 3.132 7 7 7a6.977 6.977 0 004.875-1.975l.15-.15z" fill="#222427"/></svg><svg fill="none" viewBox="0 0 24 24" id="icon-tg" xmlns="http://www.w3.org/2000/svg"><path d="M12 2a9.999 9.999 0 00-7.07 17.071A9.999 9.999 0 1019.07 4.93 9.999 9.999 0 0012 2z" fill="#0284C7"/><path d="M5.825 11.305a535.386 535.386 0 016.443-2.791c3.07-1.283 3.707-1.506 4.124-1.514.091-.001.295.021.428.13.11.09.141.214.157.3.014.087.033.284.017.438-.166 1.757-.886 6.02-1.252 7.988-.153.833-.459 1.112-.754 1.139-.642.06-1.13-.426-1.75-.836-.973-.641-1.522-1.04-2.466-1.665-1.092-.723-.384-1.12.238-1.77.162-.17 2.99-2.756 3.044-2.99.007-.03.014-.14-.052-.197-.064-.058-.159-.038-.228-.022-.098.022-1.65 1.055-4.662 3.097-.44.305-.839.453-1.198.446-.394-.009-1.153-.225-1.718-.41-.69-.225-1.241-.345-1.193-.73.024-.2.299-.404.822-.613z" fill="#fff"/></svg><svg fill="none" viewBox="0 0 24 24" id="icon-user" xmlns="http://www.w3.org/2000/svg"><path clip-rule="evenodd" d="M17 7A5 5 0 117 7a5 5 0 0110 0z" stroke="#222427" stroke-width="2" stroke-linecap="square"/><path d="M12 15c3.699-.009 6.844 1.618 8 5.121-2.33 1.362-5.073 1.886-8 1.879-2.927.007-5.67-.517-8-1.879 1.157-3.506 4.297-5.13 8-5.121z" stroke="#222427" stroke-width="2" stroke-linecap="square"/></svg><svg fill="none" viewBox="0 0 24 24" id="icon-wa" xmlns="http://www.w3.org/2000/svg"><path d="M2.083 11.91c0 1.746.458 3.452 1.33 4.955L2 22l5.28-1.378a9.99 9.99 0 004.758 1.206h.004c5.488 0 9.956-4.446 9.958-9.91a9.827 9.827 0 00-2.914-7.012A9.918 9.918 0 0012.042 2c-5.49 0-9.956 4.446-9.959 9.91" fill="#16A34A"/><path d="M9.542 7.465c-.184-.442-.378-.451-.553-.459C8.845 7 8.68 7 8.517 7c-.164 0-.43.067-.656.332C7.636 7.597 7 8.239 7 9.544c0 1.306.882 2.567 1.005 2.744.123.177 1.702 2.941 4.202 4.004 2.079.884 2.502.708 2.953.664.451-.044 1.456-.642 1.66-1.261.206-.62.206-1.15.144-1.261-.061-.11-.225-.177-.471-.31-.247-.133-1.456-.774-1.682-.863-.225-.088-.39-.132-.553.133-.164.265-.636.863-.78 1.04-.143.177-.286.2-.532.066-.246-.133-1.039-.412-1.979-1.316-.731-.703-1.225-1.572-1.369-1.837-.143-.266-.015-.41.108-.541.11-.12.246-.31.37-.465.122-.155.163-.266.245-.443.082-.177.041-.332-.02-.464-.062-.133-.54-1.445-.759-1.97" fill="#fff"/></svg><svg fill="none" viewBox="0 0 119 48" id="logo" xmlns="http://www.w3.org/2000/svg"><path d="M33 3L15 0v48l18-3V3z" fill="#222427"/><path fill="#fff" d="M21 21h-3v3h3z"/><path fill="#8BBF1F" d="M15 2.999H0v42h15z"/><path d="M46.372 4h3.111v1.621c1.978 0 3.333.338 4.066 1.013.733.662 1.1 1.966 1.1 3.911v1.966c0 .743-.07 1.364-.208 1.864a3.402 3.402 0 01-.747 1.337c-.36.392-.885.683-1.576.872-.692.189-1.57.283-2.635.283v1.56h-3.11v-1.56c-1.066 0-1.944-.094-2.635-.283-.691-.19-1.217-.48-1.577-.872a3.404 3.404 0 01-.746-1.337c-.138-.5-.208-1.121-.208-1.864v-1.966c0-1.959.367-3.27 1.1-3.931.733-.662 2.088-.993 4.065-.993V4zm3.111 3.688V14.8h.436c.484 0 .816-.182.996-.547.193-.364.29-.986.29-1.864V9.998c0-.878-.097-1.48-.29-1.803-.18-.338-.512-.507-.996-.507h-.436zm-3.11 7.112V7.688h-.436c-.484 0-.823.169-1.017.507-.18.324-.27.925-.27 1.803v2.391c0 .878.09 1.5.27 1.864.194.365.533.547 1.017.547h.435zM60.215 12.693h1.244l-.601-6.423h-.042l-.601 6.423zM58.887 4h4.73l1.908 14.428h-3.423l-.394-3.546h-1.866l-.56 3.546h-2.904L58.888 4zM70.708 11.74v4.62h.539c.567 0 .92-.148 1.058-.445.152-.297.228-.905.228-1.824 0-.932-.076-1.553-.228-1.864-.139-.324-.491-.486-1.058-.486h-.54zM67.264 4h7.696v2.067h-4.252v3.607h1.576c.567 0 1.05.06 1.452.182.4.108.781.31 1.14.608.36.297.63.75.81 1.358.193.608.29 1.364.29 2.27 0 1.634-.325 2.768-.975 3.403-.636.622-1.528.933-2.676.933h-5.06V4zM81.366 6.067v4.721h.54c.566 0 .919-.155 1.057-.466.152-.324.228-.952.228-1.884 0-.932-.076-1.56-.228-1.885-.138-.324-.49-.486-1.058-.486h-.539zm0 6.788v5.573h-3.443V4h4.21c1.494 0 2.614.223 3.36.669.761.445 1.142 1.256 1.142 2.431v2.635c0 1.013-.395 1.79-1.183 2.33-.774.527-1.714.79-2.82.79h-1.266zM88.582 4h3.11v8.227h.022L94.078 4h3.402v14.428h-3.112V10.12h-.02l-2.406 8.308h-3.36V4zM102.866 4v6.545h.041L105.085 4h3.277l-2.302 6.363 2.323 8.065h-3.402l-2.074-7.316h-.041v7.316h-3.444V4h3.444zM113.69 12.693h1.245l-.602-6.423h-.041l-.602 6.423zM112.363 4h4.729L119 18.428h-3.422l-.395-3.546h-1.866l-.56 3.546h-2.904L112.363 4zM42.41 26.796h7.882v12.24h.706V44h-3.215v-2.776h-3.568V44H41v-4.965h.705a14.14 14.14 0 00.56-2.735c.097-.946.145-2.209.145-3.79v-5.714zm4.44 2.189h-1.536v3.708c0 2.81-.255 4.924-.767 6.343h2.302V28.984zM56.18 34.72v4.437c.802 0 1.307-.128 1.514-.385.208-.27.311-.932.311-1.986 0-.513-.02-.905-.062-1.175-.041-.284-.152-.493-.332-.628a.926.926 0 00-.518-.223 7.026 7.026 0 00-.913-.04zm-3.443 6.504V26.796h3.485c.525 0 .933.007 1.223.02.29 0 .65.028 1.079.082.429.04.76.108.996.202.235.081.49.21.767.385.29.162.505.365.643.608.152.243.277.554.373.932.097.365.146.79.146 1.277 0 2-.816 3.073-2.448 3.222v.142c.526 0 .961.088 1.307.263.346.176.594.44.746.79.153.338.256.69.312 1.054.055.351.083.797.083 1.337 0 .568-.042 1.06-.125 1.48-.069.418-.159.776-.27 1.074a1.73 1.73 0 01-.539.75 3.4 3.4 0 01-.705.445c-.221.108-.546.19-.975.243-.429.054-.816.088-1.161.102-.346.013-.83.02-1.452.02h-3.485zm3.443-12.36v3.789c.788 0 1.286-.115 1.494-.345.22-.243.331-.756.331-1.54 0-.797-.11-1.31-.331-1.54-.222-.243-.72-.365-1.494-.365zM63.396 26.796h7.135v2.189h-3.692v3.16h3.567v2.19H66.84v4.7h3.692v2.189h-7.135V26.796zM75.593 28.863v4.722h.54c.567 0 .92-.156 1.057-.467.153-.324.228-.952.228-1.884 0-.932-.076-1.56-.228-1.885-.138-.324-.49-.486-1.058-.486h-.539zm0 6.788v5.573H72.15V26.796h4.21c1.494 0 2.614.223 3.36.669.761.446 1.142 1.256 1.142 2.432v2.634c0 1.013-.394 1.79-1.183 2.33-.774.527-1.714.79-2.82.79h-1.266zM82.809 26.796h7.135v2.189h-3.692v3.16h3.567v2.19h-3.567v4.7h3.692v2.189h-7.135V26.796zM91.563 26.796h3.111v8.227h.021l2.365-8.227h3.401v14.428h-3.11v-8.308h-.022l-2.406 8.308h-3.36V26.796zm1.68-3.566h1.079c.124.743.74 1.114 1.846 1.114.926 0 1.466-.371 1.618-1.114h1.1c0 .892-.27 1.567-.81 2.026-.54.446-1.244.669-2.115.669-.789 0-1.439-.243-1.95-.73-.512-.486-.768-1.141-.768-1.965z" fill="#222427"/></svg></svg>